<?xml version="1.0" encoding="UTF-8" standalone="no"?>
<!DOCTYPE svg PUBLIC "-//W3C//DTD SVG 1.1//EN"
 "http://www.w3.org/Graphics/SVG/1.1/DTD/svg11.dtd">
<!-- Generated by graphviz version 2.38.0 (20140413.2041)
 -->
<!-- Title: controllers_diagram Pages: 1 -->
<svg width="706pt" height="805pt"
 viewBox="0.00 0.00 706.13 805.00" xmlns="http://www.w3.org/2000/svg" xmlns:xlink="http://www.w3.org/1999/xlink">
<g id="graph0" class="graph" transform="scale(1 1) rotate(0) translate(310.306 495.5)">
<title>controllers_diagram</title>
<polygon fill="none" stroke="none" points="-310.306,309.5 -310.306,-495.5 395.821,-495.5 395.821,309.5 -310.306,309.5"/>
<!-- _diagram_info -->
<g id="node1" class="node"><title>_diagram_info</title>
<text text-anchor="start" x="7.55029" y="192.9" font-family="Times,serif" font-size="13.00">Controllers diagram</text>
<text text-anchor="start" x="7.55029" y="205.9" font-family="Times,serif" font-size="13.00">Date: Mar 20 2016 &#45; 23:04</text>
<text text-anchor="start" x="7.55029" y="218.9" font-family="Times,serif" font-size="13.00">Migration version: 20160318112335</text>
<text text-anchor="start" x="7.55029" y="231.9" font-family="Times,serif" font-size="13.00">Generated by RailRoady 1.4.2</text>
<text text-anchor="start" x="7.55029" y="244.9" font-family="Times,serif" font-size="13.00">http://railroady.prestonlee.com</text>
</g>
<!-- AirsController -->
<g id="node2" class="node"><title>AirsController</title>
<path fill="none" stroke="black" d="M-275.828,-289C-275.828,-289 -202.172,-289 -202.172,-289 -196.172,-289 -190.172,-295 -190.172,-301 -190.172,-301 -190.172,-479 -190.172,-479 -190.172,-485 -196.172,-491 -202.172,-491 -202.172,-491 -275.828,-491 -275.828,-491 -281.828,-491 -287.828,-485 -287.828,-479 -287.828,-479 -287.828,-301 -287.828,-301 -287.828,-295 -281.828,-289 -275.828,-289"/>
<text text-anchor="middle" x="-239" y="-475.8" font-family="Times,serif" font-size="14.00">AirsController</text>
<polyline fill="none" stroke="black" points="-287.828,-469 -190.172,-469 "/>
<text text-anchor="start" x="-279.828" y="-453.8" font-family="Times,serif" font-size="14.00">create</text>
<text text-anchor="start" x="-279.828" y="-439.8" font-family="Times,serif" font-size="14.00">destroy</text>
<text text-anchor="start" x="-279.828" y="-425.8" font-family="Times,serif" font-size="14.00">edit</text>
<text text-anchor="start" x="-279.828" y="-411.8" font-family="Times,serif" font-size="14.00">index</text>
<text text-anchor="start" x="-279.828" y="-397.8" font-family="Times,serif" font-size="14.00">new</text>
<text text-anchor="start" x="-279.828" y="-383.8" font-family="Times,serif" font-size="14.00">show</text>
<text text-anchor="start" x="-279.828" y="-369.8" font-family="Times,serif" font-size="14.00">update</text>
<polyline fill="none" stroke="black" points="-287.828,-363 -190.172,-363 "/>
<polyline fill="none" stroke="black" points="-287.828,-339 -190.172,-339 "/>
<text text-anchor="start" x="-279.828" y="-323.8" font-family="Times,serif" font-size="14.00">_layout</text>
<text text-anchor="start" x="-279.828" y="-309.8" font-family="Times,serif" font-size="14.00">air_params</text>
<text text-anchor="start" x="-279.828" y="-295.8" font-family="Times,serif" font-size="14.00">set_air</text>
</g>
<!-- ApplicationController -->
<g id="node3" class="node"><title>ApplicationController</title>
<path fill="none" stroke="black" d="M264.179,17C264.179,17 379.821,17 379.821,17 385.821,17 391.821,11 391.821,5 391.821,5 391.821,-63 391.821,-63 391.821,-69 385.821,-75 379.821,-75 379.821,-75 264.179,-75 264.179,-75 258.179,-75 252.179,-69 252.179,-63 252.179,-63 252.179,5 252.179,5 252.179,11 258.179,17 264.179,17"/>
<text text-anchor="middle" x="322" y="-59.8" font-family="Times,serif" font-size="14.00">ApplicationController</text>
<polyline fill="none" stroke="black" points="252.179,-53 391.821,-53 "/>
<polyline fill="none" stroke="black" points="252.179,-29 391.821,-29 "/>
<polyline fill="none" stroke="black" points="252.179,-5 391.821,-5 "/>
<text text-anchor="start" x="260.179" y="10.2" font-family="Times,serif" font-size="14.00">_layout</text>
</g>
<!-- BlowersController -->
<g id="node4" class="node"><title>BlowersController</title>
<path fill="none" stroke="black" d="M-150.104,-181C-150.104,-181 -53.8965,-181 -53.8965,-181 -47.8965,-181 -41.8965,-187 -41.8965,-193 -41.8965,-193 -41.8965,-371 -41.8965,-371 -41.8965,-377 -47.8965,-383 -53.8965,-383 -53.8965,-383 -150.104,-383 -150.104,-383 -156.104,-383 -162.104,-377 -162.104,-371 -162.104,-371 -162.104,-193 -162.104,-193 -162.104,-187 -156.104,-181 -150.104,-181"/>
<text text-anchor="middle" x="-102" y="-367.8" font-family="Times,serif" font-size="14.00">BlowersController</text>
<polyline fill="none" stroke="black" points="-162.104,-361 -41.8965,-361 "/>
<text text-anchor="start" x="-154.104" y="-345.8" font-family="Times,serif" font-size="14.00">create</text>
<text text-anchor="start" x="-154.104" y="-331.8" font-family="Times,serif" font-size="14.00">destroy</text>
<text text-anchor="start" x="-154.104" y="-317.8" font-family="Times,serif" font-size="14.00">edit</text>
<text text-anchor="start" x="-154.104" y="-303.8" font-family="Times,serif" font-size="14.00">index</text>
<text text-anchor="start" x="-154.104" y="-289.8" font-family="Times,serif" font-size="14.00">new</text>
<text text-anchor="start" x="-154.104" y="-275.8" font-family="Times,serif" font-size="14.00">show</text>
<text text-anchor="start" x="-154.104" y="-261.8" font-family="Times,serif" font-size="14.00">update</text>
<polyline fill="none" stroke="black" points="-162.104,-255 -41.8965,-255 "/>
<polyline fill="none" stroke="black" points="-162.104,-231 -41.8965,-231 "/>
<text text-anchor="start" x="-154.104" y="-215.8" font-family="Times,serif" font-size="14.00">_layout</text>
<text text-anchor="start" x="-154.104" y="-201.8" font-family="Times,serif" font-size="14.00">blower_params</text>
<text text-anchor="start" x="-154.104" y="-187.8" font-family="Times,serif" font-size="14.00">set_blower</text>
</g>
<!-- CoolantsController -->
<g id="node5" class="node"><title>CoolantsController</title>
<path fill="none" stroke="black" d="M-221.662,53C-221.662,53 -122.338,53 -122.338,53 -116.338,53 -110.338,47 -110.338,41 -110.338,41 -110.338,-137 -110.338,-137 -110.338,-143 -116.338,-149 -122.338,-149 -122.338,-149 -221.662,-149 -221.662,-149 -227.662,-149 -233.662,-143 -233.662,-137 -233.662,-137 -233.662,41 -233.662,41 -233.662,47 -227.662,53 -221.662,53"/>
<text text-anchor="middle" x="-172" y="-133.8" font-family="Times,serif" font-size="14.00">CoolantsController</text>
<polyline fill="none" stroke="black" points="-233.662,-127 -110.338,-127 "/>
<text text-anchor="start" x="-225.662" y="-111.8" font-family="Times,serif" font-size="14.00">create</text>
<text text-anchor="start" x="-225.662" y="-97.8" font-family="Times,serif" font-size="14.00">destroy</text>
<text text-anchor="start" x="-225.662" y="-83.8" font-family="Times,serif" font-size="14.00">edit</text>
<text text-anchor="start" x="-225.662" y="-69.8" font-family="Times,serif" font-size="14.00">index</text>
<text text-anchor="start" x="-225.662" y="-55.8" font-family="Times,serif" font-size="14.00">new</text>
<text text-anchor="start" x="-225.662" y="-41.8" font-family="Times,serif" font-size="14.00">show</text>
<text text-anchor="start" x="-225.662" y="-27.8" font-family="Times,serif" font-size="14.00">update</text>
<polyline fill="none" stroke="black" points="-233.662,-21 -110.338,-21 "/>
<polyline fill="none" stroke="black" points="-233.662,3 -110.338,3 "/>
<text text-anchor="start" x="-225.662" y="18.2" font-family="Times,serif" font-size="14.00">_layout</text>
<text text-anchor="start" x="-225.662" y="32.2" font-family="Times,serif" font-size="14.00">coolant_params</text>
<text text-anchor="start" x="-225.662" y="46.2" font-family="Times,serif" font-size="14.00">set_coolant</text>
</g>
<!-- EnginesController -->
<g id="node6" class="node"><title>EnginesController</title>
<path fill="none" stroke="black" d="M11.6758,-181C11.6758,-181 106.324,-181 106.324,-181 112.324,-181 118.324,-187 118.324,-193 118.324,-193 118.324,-371 118.324,-371 118.324,-377 112.324,-383 106.324,-383 106.324,-383 11.6758,-383 11.6758,-383 5.67578,-383 -0.324219,-377 -0.324219,-371 -0.324219,-371 -0.324219,-193 -0.324219,-193 -0.324219,-187 5.67578,-181 11.6758,-181"/>
<text text-anchor="middle" x="59" y="-367.8" font-family="Times,serif" font-size="14.00">EnginesController</text>
<polyline fill="none" stroke="black" points="-0.324219,-361 118.324,-361 "/>
<text text-anchor="start" x="7.67578" y="-345.8" font-family="Times,serif" font-size="14.00">create</text>
<text text-anchor="start" x="7.67578" y="-331.8" font-family="Times,serif" font-size="14.00">destroy</text>
<text text-anchor="start" x="7.67578" y="-317.8" font-family="Times,serif" font-size="14.00">edit</text>
<text text-anchor="start" x="7.67578" y="-303.8" font-family="Times,serif" font-size="14.00">index</text>
<text text-anchor="start" x="7.67578" y="-289.8" font-family="Times,serif" font-size="14.00">new</text>
<text text-anchor="start" x="7.67578" y="-275.8" font-family="Times,serif" font-size="14.00">show</text>
<text text-anchor="start" x="7.67578" y="-261.8" font-family="Times,serif" font-size="14.00">update</text>
<polyline fill="none" stroke="black" points="-0.324219,-255 118.324,-255 "/>
<polyline fill="none" stroke="black" points="-0.324219,-231 118.324,-231 "/>
<text text-anchor="start" x="7.67578" y="-215.8" font-family="Times,serif" font-size="14.00">_layout</text>
<text text-anchor="start" x="7.67578" y="-201.8" font-family="Times,serif" font-size="14.00">engine_params</text>
<text text-anchor="start" x="7.67578" y="-187.8" font-family="Times,serif" font-size="14.00">set_engine</text>
</g>
<!-- GearsController -->
<g id="node7" class="node"><title>GearsController</title>
<path fill="none" stroke="black" d="M263.903,251C263.903,251 346.097,251 346.097,251 352.097,251 358.097,245 358.097,239 358.097,239 358.097,61 358.097,61 358.097,55 352.097,49 346.097,49 346.097,49 263.903,49 263.903,49 257.903,49 251.903,55 251.903,61 251.903,61 251.903,239 251.903,239 251.903,245 257.903,251 263.903,251"/>
<text text-anchor="middle" x="305" y="64.2" font-family="Times,serif" font-size="14.00">GearsController</text>
<polyline fill="none" stroke="black" points="251.903,71 358.097,71 "/>
<text text-anchor="start" x="259.903" y="86.2" font-family="Times,serif" font-size="14.00">create</text>
<text text-anchor="start" x="259.903" y="100.2" font-family="Times,serif" font-size="14.00">destroy</text>
<text text-anchor="start" x="259.903" y="114.2" font-family="Times,serif" font-size="14.00">edit</text>
<text text-anchor="start" x="259.903" y="128.2" font-family="Times,serif" font-size="14.00">index</text>
<text text-anchor="start" x="259.903" y="142.2" font-family="Times,serif" font-size="14.00">new</text>
<text text-anchor="start" x="259.903" y="156.2" font-family="Times,serif" font-size="14.00">show</text>
<text text-anchor="start" x="259.903" y="170.2" font-family="Times,serif" font-size="14.00">update</text>
<polyline fill="none" stroke="black" points="251.903,177 358.097,177 "/>
<polyline fill="none" stroke="black" points="251.903,201 358.097,201 "/>
<text text-anchor="start" x="259.903" y="216.2" font-family="Times,serif" font-size="14.00">_layout</text>
<text text-anchor="start" x="259.903" y="230.2" font-family="Times,serif" font-size="14.00">gear_params</text>
<text text-anchor="start" x="259.903" y="244.2" font-family="Times,serif" font-size="14.00">set_gear</text>
</g>
<!-- MaintenancesController -->
<g id="node8" class="node"><title>MaintenancesController</title>
<path fill="none" stroke="black" d="M174.355,-163C174.355,-163 301.645,-163 301.645,-163 307.645,-163 313.645,-169 313.645,-175 313.645,-175 313.645,-353 313.645,-353 313.645,-359 307.645,-365 301.645,-365 301.645,-365 174.355,-365 174.355,-365 168.355,-365 162.355,-359 162.355,-353 162.355,-353 162.355,-175 162.355,-175 162.355,-169 168.355,-163 174.355,-163"/>
<text text-anchor="middle" x="238" y="-349.8" font-family="Times,serif" font-size="14.00">MaintenancesController</text>
<polyline fill="none" stroke="black" points="162.355,-343 313.645,-343 "/>
<text text-anchor="start" x="170.355" y="-327.8" font-family="Times,serif" font-size="14.00">create</text>
<text text-anchor="start" x="170.355" y="-313.8" font-family="Times,serif" font-size="14.00">destroy</text>
<text text-anchor="start" x="170.355" y="-299.8" font-family="Times,serif" font-size="14.00">edit</text>
<text text-anchor="start" x="170.355" y="-285.8" font-family="Times,serif" font-size="14.00">index</text>
<text text-anchor="start" x="170.355" y="-271.8" font-family="Times,serif" font-size="14.00">new</text>
<text text-anchor="start" x="170.355" y="-257.8" font-family="Times,serif" font-size="14.00">show</text>
<text text-anchor="start" x="170.355" y="-243.8" font-family="Times,serif" font-size="14.00">update</text>
<polyline fill="none" stroke="black" points="162.355,-237 313.645,-237 "/>
<polyline fill="none" stroke="black" points="162.355,-213 313.645,-213 "/>
<text text-anchor="start" x="170.355" y="-197.8" font-family="Times,serif" font-size="14.00">_layout</text>
<text text-anchor="start" x="170.355" y="-183.8" font-family="Times,serif" font-size="14.00">maintenance_params</text>
<text text-anchor="start" x="170.355" y="-169.8" font-family="Times,serif" font-size="14.00">set_maintenance</text>
</g>
<!-- TransmissionsController -->
<g id="node9" class="node"><title>TransmissionsController</title>
<path fill="none" stroke="black" d="M84.0254,71C84.0254,71 213.975,71 213.975,71 219.975,71 225.975,65 225.975,59 225.975,59 225.975,-119 225.975,-119 225.975,-125 219.975,-131 213.975,-131 213.975,-131 84.0254,-131 84.0254,-131 78.0254,-131 72.0254,-125 72.0254,-119 72.0254,-119 72.0254,59 72.0254,59 72.0254,65 78.0254,71 84.0254,71"/>
<text text-anchor="middle" x="149" y="-115.8" font-family="Times,serif" font-size="14.00">TransmissionsController</text>
<polyline fill="none" stroke="black" points="72.0254,-109 225.975,-109 "/>
<text text-anchor="start" x="80.0254" y="-93.8" font-family="Times,serif" font-size="14.00">create</text>
<text text-anchor="start" x="80.0254" y="-79.8" font-family="Times,serif" font-size="14.00">destroy</text>
<text text-anchor="start" x="80.0254" y="-65.8" font-family="Times,serif" font-size="14.00">edit</text>
<text text-anchor="start" x="80.0254" y="-51.8" font-family="Times,serif" font-size="14.00">index</text>
<text text-anchor="start" x="80.0254" y="-37.8" font-family="Times,serif" font-size="14.00">new</text>
<text text-anchor="start" x="80.0254" y="-23.8" font-family="Times,serif" font-size="14.00">show</text>
<text text-anchor="start" x="80.0254" y="-9.8" font-family="Times,serif" font-size="14.00">update</text>
<polyline fill="none" stroke="black" points="72.0254,-3 225.975,-3 "/>
<polyline fill="none" stroke="black" points="72.0254,21 225.975,21 "/>
<text text-anchor="start" x="80.0254" y="36.2" font-family="Times,serif" font-size="14.00">_layout</text>
<text text-anchor="start" x="80.0254" y="50.2" font-family="Times,serif" font-size="14.00">set_transmission</text>
<text text-anchor="start" x="80.0254" y="64.2" font-family="Times,serif" font-size="14.00">transmission_params</text>
</g>
<!-- TripsController -->
<g id="node10" class="node"><title>TripsController</title>
<path fill="none" stroke="black" d="M-294.306,305C-294.306,305 -215.694,305 -215.694,305 -209.694,305 -203.694,299 -203.694,293 -203.694,293 -203.694,101 -203.694,101 -203.694,95 -209.694,89 -215.694,89 -215.694,89 -294.306,89 -294.306,89 -300.306,89 -306.306,95 -306.306,101 -306.306,101 -306.306,293 -306.306,293 -306.306,299 -300.306,305 -294.306,305"/>
<text text-anchor="middle" x="-255" y="104.2" font-family="Times,serif" font-size="14.00">TripsController</text>
<polyline fill="none" stroke="black" points="-306.306,111 -203.694,111 "/>
<text text-anchor="start" x="-298.306" y="126.2" font-family="Times,serif" font-size="14.00">create</text>
<text text-anchor="start" x="-298.306" y="140.2" font-family="Times,serif" font-size="14.00">destroy</text>
<text text-anchor="start" x="-298.306" y="154.2" font-family="Times,serif" font-size="14.00">edit</text>
<text text-anchor="start" x="-298.306" y="168.2" font-family="Times,serif" font-size="14.00">index</text>
<text text-anchor="start" x="-298.306" y="182.2" font-family="Times,serif" font-size="14.00">new</text>
<text text-anchor="start" x="-298.306" y="196.2" font-family="Times,serif" font-size="14.00">show</text>
<text text-anchor="start" x="-298.306" y="210.2" font-family="Times,serif" font-size="14.00">update</text>
<polyline fill="none" stroke="black" points="-306.306,217 -203.694,217 "/>
<polyline fill="none" stroke="black" points="-306.306,241 -203.694,241 "/>
<text text-anchor="start" x="-298.306" y="256.2" font-family="Times,serif" font-size="14.00">_layout</text>
<text text-anchor="start" x="-298.306" y="270.2" font-family="Times,serif" font-size="14.00">set_trip</text>
<text text-anchor="start" x="-298.306" y="284.2" font-family="Times,serif" font-size="14.00">set_truck</text>
<text text-anchor="start" x="-298.306" y="298.2" font-family="Times,serif" font-size="14.00">trip_params</text>
</g>
<!-- TrucksController -->
<g id="node11" class="node"><title>TrucksController</title>
<path fill="none" stroke="black" d="M-59.9678,143C-59.9678,143 27.9678,143 27.9678,143 33.9678,143 39.9678,137 39.9678,131 39.9678,131 39.9678,-131 39.9678,-131 39.9678,-137 33.9678,-143 27.9678,-143 27.9678,-143 -59.9678,-143 -59.9678,-143 -65.9678,-143 -71.9678,-137 -71.9678,-131 -71.9678,-131 -71.9678,131 -71.9678,131 -71.9678,137 -65.9678,143 -59.9678,143"/>
<text text-anchor="middle" x="-16" y="-127.8" font-family="Times,serif" font-size="14.00">TrucksController</text>
<polyline fill="none" stroke="black" points="-71.9678,-121 39.9678,-121 "/>
<text text-anchor="start" x="-63.9678" y="-105.8" font-family="Times,serif" font-size="14.00">create</text>
<text text-anchor="start" x="-63.9678" y="-91.8" font-family="Times,serif" font-size="14.00">destroy</text>
<text text-anchor="start" x="-63.9678" y="-77.8" font-family="Times,serif" font-size="14.00">edit</text>
<text text-anchor="start" x="-63.9678" y="-63.8" font-family="Times,serif" font-size="14.00">index</text>
<text text-anchor="start" x="-63.9678" y="-49.8" font-family="Times,serif" font-size="14.00">new</text>
<text text-anchor="start" x="-63.9678" y="-35.8" font-family="Times,serif" font-size="14.00">reAir</text>
<text text-anchor="start" x="-63.9678" y="-21.8" font-family="Times,serif" font-size="14.00">reBlower</text>
<text text-anchor="start" x="-63.9678" y="-7.8" font-family="Times,serif" font-size="14.00">reCoolant</text>
<text text-anchor="start" x="-63.9678" y="6.2" font-family="Times,serif" font-size="14.00">reEngine</text>
<text text-anchor="start" x="-63.9678" y="20.2" font-family="Times,serif" font-size="14.00">reGear</text>
<text text-anchor="start" x="-63.9678" y="34.2" font-family="Times,serif" font-size="14.00">reTransmission</text>
<text text-anchor="start" x="-63.9678" y="48.2" font-family="Times,serif" font-size="14.00">show</text>
<text text-anchor="start" x="-63.9678" y="62.2" font-family="Times,serif" font-size="14.00">update</text>
<polyline fill="none" stroke="black" points="-71.9678,69 39.9678,69 "/>
<polyline fill="none" stroke="black" points="-71.9678,93 39.9678,93 "/>
<text text-anchor="start" x="-63.9678" y="108.2" font-family="Times,serif" font-size="14.00">_layout</text>
<text text-anchor="start" x="-63.9678" y="122.2" font-family="Times,serif" font-size="14.00">set_truck</text>
<text text-anchor="start" x="-63.9678" y="136.2" font-family="Times,serif" font-size="14.00">truck_params</text>
</g>
</g>
</svg>
