<?xml version="1.0" encoding="UTF-8" standalone="no"?>
<!DOCTYPE svg PUBLIC "-//W3C//DTD SVG 1.1//EN"
 "http://www.w3.org/Graphics/SVG/1.1/DTD/svg11.dtd">
<!-- Generated by graphviz version 2.38.0 (20140413.2041)
 -->
<!-- Title: models_diagram Pages: 1 -->
<svg width="642pt" height="225pt"
 viewBox="0.00 0.00 642.45 225.00" xmlns="http://www.w3.org/2000/svg" xmlns:xlink="http://www.w3.org/1999/xlink">
<g id="graph0" class="graph" transform="scale(1 1) rotate(0) translate(4 221)">
<title>models_diagram</title>
<polygon fill="none" stroke="none" points="-4,4 -4,-221 638.45,-221 638.45,4 -4,4"/>
<!-- _diagram_info -->
<g id="node1" class="node"><title>_diagram_info</title>
<text text-anchor="start" x="8" y="-202.6" font-family="Times,serif" font-size="13.00">Models diagram</text>
<text text-anchor="start" x="8" y="-189.6" font-family="Times,serif" font-size="13.00">Date: Mar 20 2016 &#45; 23:01</text>
<text text-anchor="start" x="8" y="-176.6" font-family="Times,serif" font-size="13.00">Migration version: 20160318112335</text>
<text text-anchor="start" x="8" y="-163.6" font-family="Times,serif" font-size="13.00">Generated by RailRoady 1.4.2</text>
<text text-anchor="start" x="8" y="-150.6" font-family="Times,serif" font-size="13.00">http://railroady.prestonlee.com</text>
</g>
<!-- Ability -->
<g id="node2" class="node"><title>Ability</title>
<polygon fill="none" stroke="black" points="280.12,-198.5 224.78,-198.5 224.78,-162.5 280.12,-162.5 280.12,-198.5"/>
<text text-anchor="middle" x="252.45" y="-176.3" font-family="Times,serif" font-size="14.00">Ability</text>
</g>
<!-- Air -->
<g id="node3" class="node"><title>Air</title>
<ellipse fill="none" stroke="black" cx="325.45" cy="-180.5" rx="27" ry="18"/>
<text text-anchor="middle" x="325.45" y="-176.3" font-family="Times,serif" font-size="14.00">Air</text>
</g>
<!-- Trip -->
<g id="node10" class="node"><title>Trip</title>
<ellipse fill="none" stroke="black" cx="325.45" cy="-90" rx="27" ry="18"/>
<text text-anchor="middle" x="325.45" y="-85.8" font-family="Times,serif" font-size="14.00">Trip</text>
</g>
<!-- Air&#45;&gt;Trip -->
<g id="edge1" class="edge"><title>Air&#45;&gt;Trip</title>
<path fill="none" stroke="#d94935" d="M319.307,-154.558C318.541,-143.136 318.5,-129.578 319.182,-117.924"/>
<ellipse fill="none" stroke="#d94935" cx="319.687" cy="-158.869" rx="4" ry="4"/>
<polygon fill="#d94935" stroke="#d94935" points="319.189,-117.838 324.498,-108.243 319.601,-112.855 320.013,-107.872 320.013,-107.872 320.013,-107.872 319.601,-112.855 315.528,-107.502 319.189,-117.838 319.189,-117.838"/>
</g>
<!-- Blower -->
<g id="node4" class="node"><title>Blower</title>
<ellipse fill="none" stroke="black" cx="142.45" cy="-18" rx="36.2818" ry="18"/>
<text text-anchor="middle" x="142.45" y="-13.8" font-family="Times,serif" font-size="14.00">Blower</text>
</g>
<!-- Blower&#45;&gt;Trip -->
<g id="edge2" class="edge"><title>Blower&#45;&gt;Trip</title>
<path fill="none" stroke="#f1f322" d="M179.945,-31.3204C213.709,-43.5218 262.573,-62.1816 294.258,-74.9522"/>
<ellipse fill="none" stroke="#f1f322" cx="175.898" cy="-29.8679" rx="4.00001" ry="4.00001"/>
<polygon fill="#f1f322" stroke="#f1f322" points="294.505,-75.0528 302.072,-82.9896 299.137,-76.9371 303.768,-78.8214 303.768,-78.8214 303.768,-78.8214 299.137,-76.9371 305.464,-74.6532 294.505,-75.0528 294.505,-75.0528"/>
</g>
<!-- Coolant -->
<g id="node5" class="node"><title>Coolant</title>
<ellipse fill="none" stroke="black" cx="234.45" cy="-18" rx="38.2197" ry="18"/>
<text text-anchor="middle" x="234.45" y="-13.8" font-family="Times,serif" font-size="14.00">Coolant</text>
</g>
<!-- Coolant&#45;&gt;Trip -->
<g id="edge3" class="edge"><title>Coolant&#45;&gt;Trip</title>
<path fill="none" stroke="#c74322" d="M263.951,-37.0831C277.023,-46.4407 292.041,-57.9225 304.036,-67.7069"/>
<ellipse fill="none" stroke="#c74322" cx="260.588" cy="-34.7097" rx="4.00002" ry="4.00002"/>
<polygon fill="#c74322" stroke="#c74322" points="304.099,-67.7596 308.909,-77.6143 307.943,-70.9572 311.787,-74.1548 311.787,-74.1548 311.787,-74.1548 307.943,-70.9572 314.665,-70.6953 304.099,-67.7596 304.099,-67.7596"/>
</g>
<!-- Engine -->
<g id="node6" class="node"><title>Engine</title>
<ellipse fill="none" stroke="black" cx="325.45" cy="-18" rx="35.3129" ry="18"/>
<text text-anchor="middle" x="325.45" y="-13.8" font-family="Times,serif" font-size="14.00">Engine</text>
</g>
<!-- Engine&#45;&gt;Trip -->
<g id="edge4" class="edge"><title>Engine&#45;&gt;Trip</title>
<path fill="none" stroke="#c05814" d="M331.957,-44.1603C332.253,-50.0132 332.278,-56.2656 332.033,-62.1869"/>
<ellipse fill="none" stroke="#c05814" cx="331.634" cy="-39.9446" rx="4" ry="4"/>
<polygon fill="#c05814" stroke="#c05814" points="332.015,-62.4373 326.801,-72.0847 331.652,-67.4241 331.29,-72.411 331.29,-72.411 331.29,-72.411 331.652,-67.4241 335.778,-72.7373 332.015,-62.4373 332.015,-62.4373"/>
</g>
<!-- Gear -->
<g id="node7" class="node"><title>Gear</title>
<ellipse fill="none" stroke="black" cx="405.45" cy="-18" rx="27.0787" ry="18"/>
<text text-anchor="middle" x="405.45" y="-13.8" font-family="Times,serif" font-size="14.00">Gear</text>
</g>
<!-- Gear&#45;&gt;Trip -->
<g id="edge5" class="edge"><title>Gear&#45;&gt;Trip</title>
<path fill="none" stroke="#72f9af" d="M387.42,-40.2572C377.081,-49.933 364.04,-61.2747 352.525,-70.5818"/>
<ellipse fill="none" stroke="#72f9af" cx="390.577" cy="-37.2431" rx="4.00002" ry="4.00002"/>
<polygon fill="#72f9af" stroke="#72f9af" points="352.496,-70.6047 341.86,-73.277 348.574,-73.7058 344.651,-76.8069 344.651,-76.8069 344.651,-76.8069 348.574,-73.7058 347.442,-80.3369 352.496,-70.6047 352.496,-70.6047"/>
</g>
<!-- Maintenance -->
<g id="node8" class="node"><title>Maintenance</title>
<ellipse fill="none" stroke="black" cx="506.45" cy="-180.5" rx="55.551" ry="18"/>
<text text-anchor="middle" x="506.45" y="-176.3" font-family="Times,serif" font-size="14.00">Maintenance</text>
</g>
<!-- Transmission -->
<g id="node9" class="node"><title>Transmission</title>
<ellipse fill="none" stroke="black" cx="508.45" cy="-18" rx="57.4096" ry="18"/>
<text text-anchor="middle" x="508.45" y="-13.8" font-family="Times,serif" font-size="14.00">Transmission</text>
</g>
<!-- Transmission&#45;&gt;Trip -->
<g id="edge6" class="edge"><title>Transmission&#45;&gt;Trip</title>
<path fill="none" stroke="#4890e3" d="M469.268,-36.248C436.516,-49.2931 390.435,-66.8129 359.258,-78.0079"/>
<ellipse fill="none" stroke="#4890e3" cx="473.161" cy="-34.6894" rx="4.00001" ry="4.00001"/>
<polygon fill="#4890e3" stroke="#4890e3" points="358.827,-78.1609 347.898,-77.2684 354.116,-79.8348 349.404,-81.5088 349.404,-81.5088 349.404,-81.5088 354.116,-79.8348 350.911,-85.7491 358.827,-78.1609 358.827,-78.1609"/>
</g>
<!-- Trip&#45;&gt;Air -->
<g id="edge7" class="edge"><title>Trip&#45;&gt;Air</title>
<path fill="none" stroke="#ca5d0d" d="M331.607,-116.156C332.402,-128.189 332.397,-142.553 331.593,-154.558"/>
<ellipse fill="none" stroke="#ca5d0d" cx="331.233" cy="-111.857" rx="4" ry="4"/>
<ellipse fill="#ca5d0d" stroke="#ca5d0d" cx="331.213" cy="-158.869" rx="4" ry="4"/>
</g>
<!-- Trip&#45;&gt;Blower -->
<g id="edge11" class="edge"><title>Trip&#45;&gt;Blower</title>
<path fill="none" stroke="#f12b5b" d="M293.797,-78.7803C260.816,-66.9872 209.599,-47.4875 175.96,-33.9806"/>
<ellipse fill="none" stroke="#f12b5b" cx="297.725" cy="-80.1725" rx="4.00001" ry="4.00001"/>
<ellipse fill="#f12b5b" stroke="#f12b5b" cx="171.936" cy="-32.3538" rx="4.00001" ry="4.00001"/>
</g>
<!-- Trip&#45;&gt;Coolant -->
<g id="edge10" class="edge"><title>Trip&#45;&gt;Coolant</title>
<path fill="none" stroke="#0c98f7" d="M298.585,-72.7942C284.826,-63.0535 268.423,-50.5518 255.568,-40.0522"/>
<ellipse fill="none" stroke="#0c98f7" cx="301.974" cy="-75.1549" rx="4.00002" ry="4.00002"/>
<ellipse fill="#0c98f7" stroke="#0c98f7" cx="252.281" cy="-37.3238" rx="4.00002" ry="4.00002"/>
</g>
<!-- Trip&#45;&gt;Engine -->
<g id="edge12" class="edge"><title>Trip&#45;&gt;Engine</title>
<path fill="none" stroke="#0cd54a" d="M318.962,-64.2065C318.615,-57.6295 318.612,-50.5255 318.954,-43.9406"/>
<ellipse fill="none" stroke="#0cd54a" cx="319.295" cy="-68.4234" rx="4" ry="4"/>
<ellipse fill="#0cd54a" stroke="#0cd54a" cx="319.262" cy="-39.9443" rx="4" ry="4"/>
</g>
<!-- Trip&#45;&gt;Gear -->
<g id="edge8" class="edge"><title>Trip&#45;&gt;Gear</title>
<path fill="none" stroke="#51ce4b" d="M343.429,-67.7899C354.288,-57.6242 368.142,-45.611 380.076,-36.0488"/>
<ellipse fill="none" stroke="#51ce4b" cx="340.378" cy="-70.7027" rx="4.00002" ry="4.00002"/>
<ellipse fill="#51ce4b" stroke="#51ce4b" cx="383.333" cy="-33.4882" rx="4.00002" ry="4.00002"/>
</g>
<!-- Trip&#45;&gt;Transmission -->
<g id="edge9" class="edge"><title>Trip&#45;&gt;Transmission</title>
<path fill="none" stroke="#5844d1" d="M354.698,-75.7368C383.767,-63.9801 428.569,-46.8068 462.386,-34.4366"/>
<ellipse fill="none" stroke="#5844d1" cx="350.835" cy="-77.3114" rx="4.00001" ry="4.00001"/>
<ellipse fill="#5844d1" stroke="#5844d1" cx="466.534" cy="-32.9272" rx="4.00001" ry="4.00001"/>
</g>
<!-- Truck -->
<g id="node11" class="node"><title>Truck</title>
<ellipse fill="none" stroke="black" cx="401.45" cy="-180.5" rx="30.8317" ry="18"/>
<text text-anchor="middle" x="401.45" y="-176.3" font-family="Times,serif" font-size="14.00">Truck</text>
</g>
<!-- Truck&#45;&gt;Trip -->
<g id="edge13" class="edge"><title>Truck&#45;&gt;Trip</title>
<path fill="none" stroke="#1bc148" d="M382.975,-157.986C371.509,-144.634 356.786,-127.491 345.106,-113.889"/>
<ellipse fill="none" stroke="#1bc148" cx="385.606" cy="-161.05" rx="4.00002" ry="4.00002"/>
<polygon fill="#1bc148" stroke="#1bc148" points="344.798,-113.531 341.697,-103.012 341.54,-109.737 338.283,-105.944 338.283,-105.944 338.283,-105.944 341.54,-109.737 334.869,-108.876 344.798,-113.531 344.798,-113.531"/>
</g>
<!-- User -->
<g id="node12" class="node"><title>User</title>
<ellipse fill="none" stroke="black" cx="607.45" cy="-180.5" rx="27" ry="18"/>
<text text-anchor="middle" x="607.45" y="-176.3" font-family="Times,serif" font-size="14.00">User</text>
</g>
</g>
</svg>
