<?xml version="1.0" encoding="UTF-8" standalone="no"?>
<!DOCTYPE svg PUBLIC "-//W3C//DTD SVG 1.1//EN"
 "http://www.w3.org/Graphics/SVG/1.1/DTD/svg11.dtd">
<!-- Generated by graphviz version 2.38.0 (20140413.2041)
 -->
<!-- Title: models_diagram Pages: 1 -->
<svg width="2753pt" height="568pt"
 viewBox="0.00 0.00 2753.08 568.00" xmlns="http://www.w3.org/2000/svg" xmlns:xlink="http://www.w3.org/1999/xlink">
<g id="graph0" class="graph" transform="scale(1 1) rotate(0) translate(4 564)">
<title>models_diagram</title>
<polygon fill="none" stroke="none" points="-4,4 -4,-564 2749.08,-564 2749.08,4 -4,4"/>
<!-- _diagram_info -->
<g id="node1" class="node"><title>_diagram_info</title>
<text text-anchor="start" x="8" y="-468.6" font-family="Times,serif" font-size="13.00">Models diagram</text>
<text text-anchor="start" x="8" y="-455.6" font-family="Times,serif" font-size="13.00">Date: Mar 21 2016 &#45; 12:23</text>
<text text-anchor="start" x="8" y="-442.6" font-family="Times,serif" font-size="13.00">Migration version: 20160318112335</text>
<text text-anchor="start" x="8" y="-429.6" font-family="Times,serif" font-size="13.00">Generated by RailRoady 1.4.2</text>
<text text-anchor="start" x="8" y="-416.6" font-family="Times,serif" font-size="13.00">http://railroady.prestonlee.com</text>
</g>
<!-- Ability -->
<g id="node2" class="node"><title>Ability</title>
<polygon fill="none" stroke="black" points="224.615,-424.5 224.615,-468.5 280.284,-468.5 280.284,-424.5 224.615,-424.5"/>
<text text-anchor="middle" x="252.45" y="-453.3" font-family="Times,serif" font-size="14.00">Ability</text>
<polyline fill="none" stroke="black" points="224.615,-446.5 280.284,-446.5 "/>
<text text-anchor="middle" x="252.45" y="-431.3" font-family="Times,serif" font-size="14.00"> </text>
</g>
<!-- Air -->
<g id="node3" class="node"><title>Air</title>
<path fill="none" stroke="black" d="M310.587,-403.5C310.587,-403.5 534.312,-403.5 534.312,-403.5 540.312,-403.5 546.312,-409.5 546.312,-415.5 546.312,-415.5 546.312,-477.5 546.312,-477.5 546.312,-483.5 540.312,-489.5 534.312,-489.5 534.312,-489.5 310.587,-489.5 310.587,-489.5 304.587,-489.5 298.587,-483.5 298.587,-477.5 298.587,-477.5 298.587,-415.5 298.587,-415.5 298.587,-409.5 304.587,-403.5 310.587,-403.5"/>
<text text-anchor="middle" x="422.45" y="-474.3" font-family="Times,serif" font-size="14.00">Air</text>
<polyline fill="none" stroke="black" points="298.587,-467.5 546.312,-467.5 "/>
<text text-anchor="start" x="306.587" y="-452.3" font-family="Times,serif" font-size="14.00">id :integer</text>
<text text-anchor="start" x="306.587" y="-438.3" font-family="Times,serif" font-size="14.00">created_at :timestamp without time zone</text>
<text text-anchor="start" x="306.587" y="-424.3" font-family="Times,serif" font-size="14.00">updated_at :timestamp without time zone</text>
<text text-anchor="start" x="306.587" y="-410.3" font-family="Times,serif" font-size="14.00">truck_id :integer</text>
</g>
<!-- Trip -->
<g id="node10" class="node"><title>Trip</title>
<path fill="none" stroke="black" d="M1108.59,-0.5C1108.59,-0.5 1332.31,-0.5 1332.31,-0.5 1338.31,-0.5 1344.31,-6.5 1344.31,-12.5 1344.31,-12.5 1344.31,-284.5 1344.31,-284.5 1344.31,-290.5 1338.31,-296.5 1332.31,-296.5 1332.31,-296.5 1108.59,-296.5 1108.59,-296.5 1102.59,-296.5 1096.59,-290.5 1096.59,-284.5 1096.59,-284.5 1096.59,-12.5 1096.59,-12.5 1096.59,-6.5 1102.59,-0.5 1108.59,-0.5"/>
<text text-anchor="middle" x="1220.45" y="-281.3" font-family="Times,serif" font-size="14.00">Trip</text>
<polyline fill="none" stroke="black" points="1096.59,-274.5 1344.31,-274.5 "/>
<text text-anchor="start" x="1104.59" y="-259.3" font-family="Times,serif" font-size="14.00">id :integer</text>
<text text-anchor="start" x="1104.59" y="-245.3" font-family="Times,serif" font-size="14.00">trip_date :date</text>
<text text-anchor="start" x="1104.59" y="-231.3" font-family="Times,serif" font-size="14.00">driver :text</text>
<text text-anchor="start" x="1104.59" y="-217.3" font-family="Times,serif" font-size="14.00">weight :numeric</text>
<text text-anchor="start" x="1104.59" y="-203.3" font-family="Times,serif" font-size="14.00">trip_type :boolean</text>
<text text-anchor="start" x="1104.59" y="-189.3" font-family="Times,serif" font-size="14.00">liter :numeric</text>
<text text-anchor="start" x="1104.59" y="-175.3" font-family="Times,serif" font-size="14.00">distance :numeric</text>
<text text-anchor="start" x="1104.59" y="-161.3" font-family="Times,serif" font-size="14.00">average :double precision</text>
<text text-anchor="start" x="1104.59" y="-147.3" font-family="Times,serif" font-size="14.00">cement :text</text>
<text text-anchor="start" x="1104.59" y="-133.3" font-family="Times,serif" font-size="14.00">destination :text</text>
<text text-anchor="start" x="1104.59" y="-119.3" font-family="Times,serif" font-size="14.00">created_at :timestamp without time zone</text>
<text text-anchor="start" x="1104.59" y="-105.3" font-family="Times,serif" font-size="14.00">updated_at :timestamp without time zone</text>
<text text-anchor="start" x="1104.59" y="-91.3" font-family="Times,serif" font-size="14.00">engine_id :integer</text>
<text text-anchor="start" x="1104.59" y="-77.3" font-family="Times,serif" font-size="14.00">transmission_id :integer</text>
<text text-anchor="start" x="1104.59" y="-63.3" font-family="Times,serif" font-size="14.00">gear_id :integer</text>
<text text-anchor="start" x="1104.59" y="-49.3" font-family="Times,serif" font-size="14.00">air_id :integer</text>
<text text-anchor="start" x="1104.59" y="-35.3" font-family="Times,serif" font-size="14.00">truck_id :integer</text>
<text text-anchor="start" x="1104.59" y="-21.3" font-family="Times,serif" font-size="14.00">coolant_id :integer</text>
<text text-anchor="start" x="1104.59" y="-7.3" font-family="Times,serif" font-size="14.00">blower_id :integer</text>
</g>
<!-- Air&#45;&gt;Trip -->
<g id="edge1" class="edge"><title>Air&#45;&gt;Trip</title>
<path fill="none" stroke="#15e7dc" d="M468.654,-397.717C492.686,-375.256 523.643,-349.788 555.45,-333 727.022,-242.439 947.724,-193.014 1086.68,-168.926"/>
<ellipse fill="none" stroke="#15e7dc" cx="465.602" cy="-400.605" rx="4.00002" ry="4.00002"/>
<polygon fill="#15e7dc" stroke="#15e7dc" points="1086.69,-168.925 1097.31,-171.67 1091.62,-168.08 1096.55,-167.235 1096.55,-167.235 1096.55,-167.235 1091.62,-168.08 1095.79,-162.8 1086.69,-168.925 1086.69,-168.925"/>
</g>
<!-- Blower -->
<g id="node4" class="node"><title>Blower</title>
<path fill="none" stroke="black" d="M576.587,-403.5C576.587,-403.5 800.312,-403.5 800.312,-403.5 806.312,-403.5 812.312,-409.5 812.312,-415.5 812.312,-415.5 812.312,-477.5 812.312,-477.5 812.312,-483.5 806.312,-489.5 800.312,-489.5 800.312,-489.5 576.587,-489.5 576.587,-489.5 570.587,-489.5 564.587,-483.5 564.587,-477.5 564.587,-477.5 564.587,-415.5 564.587,-415.5 564.587,-409.5 570.587,-403.5 576.587,-403.5"/>
<text text-anchor="middle" x="688.45" y="-474.3" font-family="Times,serif" font-size="14.00">Blower</text>
<polyline fill="none" stroke="black" points="564.587,-467.5 812.312,-467.5 "/>
<text text-anchor="start" x="572.587" y="-452.3" font-family="Times,serif" font-size="14.00">id :integer</text>
<text text-anchor="start" x="572.587" y="-438.3" font-family="Times,serif" font-size="14.00">created_at :timestamp without time zone</text>
<text text-anchor="start" x="572.587" y="-424.3" font-family="Times,serif" font-size="14.00">updated_at :timestamp without time zone</text>
<text text-anchor="start" x="572.587" y="-410.3" font-family="Times,serif" font-size="14.00">truck_id :integer</text>
</g>
<!-- Blower&#45;&gt;Trip -->
<g id="edge2" class="edge"><title>Blower&#45;&gt;Trip</title>
<path fill="none" stroke="#4bd1c1" d="M737.906,-398.088C761.925,-376.563 791.927,-351.78 821.45,-333 905.214,-279.714 1006.99,-233.162 1086.78,-200.279"/>
<ellipse fill="none" stroke="#4bd1c1" cx="734.9" cy="-400.803" rx="4.00002" ry="4.00002"/>
<polygon fill="#4bd1c1" stroke="#4bd1c1" points="1087.15,-200.129 1098.11,-200.501 1091.78,-198.233 1096.4,-196.337 1096.4,-196.337 1096.4,-196.337 1091.78,-198.233 1094.7,-192.173 1087.15,-200.129 1087.15,-200.129"/>
</g>
<!-- Coolant -->
<g id="node5" class="node"><title>Coolant</title>
<path fill="none" stroke="black" d="M842.587,-403.5C842.587,-403.5 1066.31,-403.5 1066.31,-403.5 1072.31,-403.5 1078.31,-409.5 1078.31,-415.5 1078.31,-415.5 1078.31,-477.5 1078.31,-477.5 1078.31,-483.5 1072.31,-489.5 1066.31,-489.5 1066.31,-489.5 842.587,-489.5 842.587,-489.5 836.587,-489.5 830.587,-483.5 830.587,-477.5 830.587,-477.5 830.587,-415.5 830.587,-415.5 830.587,-409.5 836.587,-403.5 842.587,-403.5"/>
<text text-anchor="middle" x="954.45" y="-474.3" font-family="Times,serif" font-size="14.00">Coolant</text>
<polyline fill="none" stroke="black" points="830.587,-467.5 1078.31,-467.5 "/>
<text text-anchor="start" x="838.587" y="-452.3" font-family="Times,serif" font-size="14.00">id :integer</text>
<text text-anchor="start" x="838.587" y="-438.3" font-family="Times,serif" font-size="14.00">created_at :timestamp without time zone</text>
<text text-anchor="start" x="838.587" y="-424.3" font-family="Times,serif" font-size="14.00">updated_at :timestamp without time zone</text>
<text text-anchor="start" x="838.587" y="-410.3" font-family="Times,serif" font-size="14.00">truck_id :integer</text>
</g>
<!-- Coolant&#45;&gt;Trip -->
<g id="edge3" class="edge"><title>Coolant&#45;&gt;Trip</title>
<path fill="none" stroke="#4659eb" d="M997.897,-397.152C1023.11,-369.099 1056.33,-332.126 1089.4,-295.331"/>
<ellipse fill="none" stroke="#4659eb" cx="994.952" cy="-400.43" rx="4.00002" ry="4.00002"/>
<polygon fill="#4659eb" stroke="#4659eb" points="1089.77,-294.923 1099.8,-290.493 1093.11,-291.204 1096.45,-287.485 1096.45,-287.485 1096.45,-287.485 1093.11,-291.204 1093.1,-284.478 1089.77,-294.923 1089.77,-294.923"/>
</g>
<!-- Engine -->
<g id="node6" class="node"><title>Engine</title>
<path fill="none" stroke="black" d="M1108.59,-403.5C1108.59,-403.5 1332.31,-403.5 1332.31,-403.5 1338.31,-403.5 1344.31,-409.5 1344.31,-415.5 1344.31,-415.5 1344.31,-477.5 1344.31,-477.5 1344.31,-483.5 1338.31,-489.5 1332.31,-489.5 1332.31,-489.5 1108.59,-489.5 1108.59,-489.5 1102.59,-489.5 1096.59,-483.5 1096.59,-477.5 1096.59,-477.5 1096.59,-415.5 1096.59,-415.5 1096.59,-409.5 1102.59,-403.5 1108.59,-403.5"/>
<text text-anchor="middle" x="1220.45" y="-474.3" font-family="Times,serif" font-size="14.00">Engine</text>
<polyline fill="none" stroke="black" points="1096.59,-467.5 1344.31,-467.5 "/>
<text text-anchor="start" x="1104.59" y="-452.3" font-family="Times,serif" font-size="14.00">id :integer</text>
<text text-anchor="start" x="1104.59" y="-438.3" font-family="Times,serif" font-size="14.00">created_at :timestamp without time zone</text>
<text text-anchor="start" x="1104.59" y="-424.3" font-family="Times,serif" font-size="14.00">updated_at :timestamp without time zone</text>
<text text-anchor="start" x="1104.59" y="-410.3" font-family="Times,serif" font-size="14.00">truck_id :integer</text>
</g>
<!-- Engine&#45;&gt;Trip -->
<g id="edge4" class="edge"><title>Engine&#45;&gt;Trip</title>
<path fill="none" stroke="#01eed7" d="M1220.45,-395.159C1220.45,-370.403 1220.45,-339.063 1220.45,-307.122"/>
<ellipse fill="none" stroke="#01eed7" cx="1220.45" cy="-399.405" rx="4" ry="4"/>
<polygon fill="#01eed7" stroke="#01eed7" points="1220.45,-306.738 1224.95,-296.738 1220.45,-301.738 1220.45,-296.738 1220.45,-296.738 1220.45,-296.738 1220.45,-301.738 1215.95,-296.738 1220.45,-306.738 1220.45,-306.738"/>
</g>
<!-- Gear -->
<g id="node7" class="node"><title>Gear</title>
<path fill="none" stroke="black" d="M1374.59,-403.5C1374.59,-403.5 1598.31,-403.5 1598.31,-403.5 1604.31,-403.5 1610.31,-409.5 1610.31,-415.5 1610.31,-415.5 1610.31,-477.5 1610.31,-477.5 1610.31,-483.5 1604.31,-489.5 1598.31,-489.5 1598.31,-489.5 1374.59,-489.5 1374.59,-489.5 1368.59,-489.5 1362.59,-483.5 1362.59,-477.5 1362.59,-477.5 1362.59,-415.5 1362.59,-415.5 1362.59,-409.5 1368.59,-403.5 1374.59,-403.5"/>
<text text-anchor="middle" x="1486.45" y="-474.3" font-family="Times,serif" font-size="14.00">Gear</text>
<polyline fill="none" stroke="black" points="1362.59,-467.5 1610.31,-467.5 "/>
<text text-anchor="start" x="1370.59" y="-452.3" font-family="Times,serif" font-size="14.00">id :integer</text>
<text text-anchor="start" x="1370.59" y="-438.3" font-family="Times,serif" font-size="14.00">created_at :timestamp without time zone</text>
<text text-anchor="start" x="1370.59" y="-424.3" font-family="Times,serif" font-size="14.00">updated_at :timestamp without time zone</text>
<text text-anchor="start" x="1370.59" y="-410.3" font-family="Times,serif" font-size="14.00">truck_id :integer</text>
</g>
<!-- Gear&#45;&gt;Trip -->
<g id="edge5" class="edge"><title>Gear&#45;&gt;Trip</title>
<path fill="none" stroke="#52e9c6" d="M1443,-397.152C1417.79,-369.099 1384.57,-332.126 1351.5,-295.331"/>
<ellipse fill="none" stroke="#52e9c6" cx="1445.95" cy="-400.43" rx="4.00002" ry="4.00002"/>
<polygon fill="#52e9c6" stroke="#52e9c6" points="1351.13,-294.923 1347.8,-284.478 1347.79,-291.204 1344.45,-287.485 1344.45,-287.485 1344.45,-287.485 1347.79,-291.204 1341.1,-290.493 1351.13,-294.923 1351.13,-294.923"/>
</g>
<!-- Maintenance -->
<g id="node8" class="node"><title>Maintenance</title>
<path fill="none" stroke="black" d="M2172.59,-368.5C2172.59,-368.5 2396.31,-368.5 2396.31,-368.5 2402.31,-368.5 2408.31,-374.5 2408.31,-380.5 2408.31,-380.5 2408.31,-512.5 2408.31,-512.5 2408.31,-518.5 2402.31,-524.5 2396.31,-524.5 2396.31,-524.5 2172.59,-524.5 2172.59,-524.5 2166.59,-524.5 2160.59,-518.5 2160.59,-512.5 2160.59,-512.5 2160.59,-380.5 2160.59,-380.5 2160.59,-374.5 2166.59,-368.5 2172.59,-368.5"/>
<text text-anchor="middle" x="2284.45" y="-509.3" font-family="Times,serif" font-size="14.00">Maintenance</text>
<polyline fill="none" stroke="black" points="2160.59,-502.5 2408.31,-502.5 "/>
<text text-anchor="start" x="2168.59" y="-487.3" font-family="Times,serif" font-size="14.00">id :integer</text>
<text text-anchor="start" x="2168.59" y="-473.3" font-family="Times,serif" font-size="14.00">engine_oil :numeric</text>
<text text-anchor="start" x="2168.59" y="-459.3" font-family="Times,serif" font-size="14.00">transmission_oil :numeric</text>
<text text-anchor="start" x="2168.59" y="-445.3" font-family="Times,serif" font-size="14.00">gear_oil :numeric</text>
<text text-anchor="start" x="2168.59" y="-431.3" font-family="Times,serif" font-size="14.00">air_filter :numeric</text>
<text text-anchor="start" x="2168.59" y="-417.3" font-family="Times,serif" font-size="14.00">water_coolant :numeric</text>
<text text-anchor="start" x="2168.59" y="-403.3" font-family="Times,serif" font-size="14.00">cement_blower :numeric</text>
<text text-anchor="start" x="2168.59" y="-389.3" font-family="Times,serif" font-size="14.00">created_at :timestamp without time zone</text>
<text text-anchor="start" x="2168.59" y="-375.3" font-family="Times,serif" font-size="14.00">updated_at :timestamp without time zone</text>
</g>
<!-- Transmission -->
<g id="node9" class="node"><title>Transmission</title>
<path fill="none" stroke="black" d="M1640.59,-403.5C1640.59,-403.5 1864.31,-403.5 1864.31,-403.5 1870.31,-403.5 1876.31,-409.5 1876.31,-415.5 1876.31,-415.5 1876.31,-477.5 1876.31,-477.5 1876.31,-483.5 1870.31,-489.5 1864.31,-489.5 1864.31,-489.5 1640.59,-489.5 1640.59,-489.5 1634.59,-489.5 1628.59,-483.5 1628.59,-477.5 1628.59,-477.5 1628.59,-415.5 1628.59,-415.5 1628.59,-409.5 1634.59,-403.5 1640.59,-403.5"/>
<text text-anchor="middle" x="1752.45" y="-474.3" font-family="Times,serif" font-size="14.00">Transmission</text>
<polyline fill="none" stroke="black" points="1628.59,-467.5 1876.31,-467.5 "/>
<text text-anchor="start" x="1636.59" y="-452.3" font-family="Times,serif" font-size="14.00">id :integer</text>
<text text-anchor="start" x="1636.59" y="-438.3" font-family="Times,serif" font-size="14.00">created_at :timestamp without time zone</text>
<text text-anchor="start" x="1636.59" y="-424.3" font-family="Times,serif" font-size="14.00">updated_at :timestamp without time zone</text>
<text text-anchor="start" x="1636.59" y="-410.3" font-family="Times,serif" font-size="14.00">truck_id :integer</text>
</g>
<!-- Transmission&#45;&gt;Trip -->
<g id="edge6" class="edge"><title>Transmission&#45;&gt;Trip</title>
<path fill="none" stroke="#e585e7" d="M1702.99,-398.088C1678.97,-376.563 1648.97,-351.78 1619.45,-333 1535.69,-279.714 1433.91,-233.162 1354.11,-200.279"/>
<ellipse fill="none" stroke="#e585e7" cx="1706" cy="-400.803" rx="4.00002" ry="4.00002"/>
<polygon fill="#e585e7" stroke="#e585e7" points="1353.75,-200.129 1346.2,-192.173 1349.12,-198.233 1344.5,-196.337 1344.5,-196.337 1344.5,-196.337 1349.12,-198.233 1342.79,-200.501 1353.75,-200.129 1353.75,-200.129"/>
</g>
<!-- Truck -->
<g id="node11" class="node"><title>Truck</title>
<path fill="none" stroke="black" d="M1906.59,-396.5C1906.59,-396.5 2130.31,-396.5 2130.31,-396.5 2136.31,-396.5 2142.31,-402.5 2142.31,-408.5 2142.31,-408.5 2142.31,-484.5 2142.31,-484.5 2142.31,-490.5 2136.31,-496.5 2130.31,-496.5 2130.31,-496.5 1906.59,-496.5 1906.59,-496.5 1900.59,-496.5 1894.59,-490.5 1894.59,-484.5 1894.59,-484.5 1894.59,-408.5 1894.59,-408.5 1894.59,-402.5 1900.59,-396.5 1906.59,-396.5"/>
<text text-anchor="middle" x="2018.45" y="-481.3" font-family="Times,serif" font-size="14.00">Truck</text>
<polyline fill="none" stroke="black" points="1894.59,-474.5 2142.31,-474.5 "/>
<text text-anchor="start" x="1902.59" y="-459.3" font-family="Times,serif" font-size="14.00">id :integer</text>
<text text-anchor="start" x="1902.59" y="-445.3" font-family="Times,serif" font-size="14.00">plate :text</text>
<text text-anchor="start" x="1902.59" y="-431.3" font-family="Times,serif" font-size="14.00">bulker :boolean</text>
<text text-anchor="start" x="1902.59" y="-417.3" font-family="Times,serif" font-size="14.00">created_at :timestamp without time zone</text>
<text text-anchor="start" x="1902.59" y="-403.3" font-family="Times,serif" font-size="14.00">updated_at :timestamp without time zone</text>
</g>
<!-- Truck&#45;&gt;Trip -->
<g id="edge7" class="edge"><title>Truck&#45;&gt;Trip</title>
<path fill="none" stroke="#00d152" d="M1964.78,-390.85C1941.97,-370.214 1914.05,-348.097 1885.45,-333 1713.88,-242.439 1493.18,-193.014 1354.21,-168.926"/>
<ellipse fill="none" stroke="#00d152" cx="1967.82" cy="-393.638" rx="4.00002" ry="4.00002"/>
<polygon fill="#00d152" stroke="#00d152" points="1354.21,-168.925 1345.11,-162.8 1349.28,-168.08 1344.35,-167.235 1344.35,-167.235 1344.35,-167.235 1349.28,-168.08 1343.59,-171.67 1354.21,-168.925 1354.21,-168.925"/>
</g>
<!-- User -->
<g id="node12" class="node"><title>User</title>
<path fill="none" stroke="black" d="M2437.81,-333.5C2437.81,-333.5 2733.08,-333.5 2733.08,-333.5 2739.08,-333.5 2745.08,-339.5 2745.08,-345.5 2745.08,-345.5 2745.08,-547.5 2745.08,-547.5 2745.08,-553.5 2739.08,-559.5 2733.08,-559.5 2733.08,-559.5 2437.81,-559.5 2437.81,-559.5 2431.81,-559.5 2425.81,-553.5 2425.81,-547.5 2425.81,-547.5 2425.81,-345.5 2425.81,-345.5 2425.81,-339.5 2431.81,-333.5 2437.81,-333.5"/>
<text text-anchor="middle" x="2585.45" y="-544.3" font-family="Times,serif" font-size="14.00">User</text>
<polyline fill="none" stroke="black" points="2425.81,-537.5 2745.08,-537.5 "/>
<text text-anchor="start" x="2433.81" y="-522.3" font-family="Times,serif" font-size="14.00">id :integer</text>
<text text-anchor="start" x="2433.81" y="-508.3" font-family="Times,serif" font-size="14.00">email :character varying</text>
<text text-anchor="start" x="2433.81" y="-494.3" font-family="Times,serif" font-size="14.00">encrypted_password :character varying</text>
<text text-anchor="start" x="2433.81" y="-480.3" font-family="Times,serif" font-size="14.00">reset_password_token :character varying</text>
<text text-anchor="start" x="2433.81" y="-466.3" font-family="Times,serif" font-size="14.00">reset_password_sent_at :timestamp without time zone</text>
<text text-anchor="start" x="2433.81" y="-452.3" font-family="Times,serif" font-size="14.00">remember_created_at :timestamp without time zone</text>
<text text-anchor="start" x="2433.81" y="-438.3" font-family="Times,serif" font-size="14.00">sign_in_count :integer</text>
<text text-anchor="start" x="2433.81" y="-424.3" font-family="Times,serif" font-size="14.00">current_sign_in_at :timestamp without time zone</text>
<text text-anchor="start" x="2433.81" y="-410.3" font-family="Times,serif" font-size="14.00">last_sign_in_at :timestamp without time zone</text>
<text text-anchor="start" x="2433.81" y="-396.3" font-family="Times,serif" font-size="14.00">current_sign_in_ip :character varying</text>
<text text-anchor="start" x="2433.81" y="-382.3" font-family="Times,serif" font-size="14.00">last_sign_in_ip :character varying</text>
<text text-anchor="start" x="2433.81" y="-368.3" font-family="Times,serif" font-size="14.00">created_at :timestamp without time zone</text>
<text text-anchor="start" x="2433.81" y="-354.3" font-family="Times,serif" font-size="14.00">updated_at :timestamp without time zone</text>
<text text-anchor="start" x="2433.81" y="-340.3" font-family="Times,serif" font-size="14.00">role :text</text>
</g>
</g>
</svg>
